# xmcd CD database file
# Copyright (C) 1996 Ti Kan
#
# Track frame offsets:
# 	182
# 	17225
# 	33382
# 	47950
# 	62287
# 	76552
# 	91022
# 	109402
# 	125440
#
# Disc length: 1903 seconds
#
# Revision: 1
# Processed by: cddbd v1.4b41PL1 Copyright (c) Steve Scherf et al.
# Submitted via: DiscPlay 3.4.1
#
DISCID=65076d09
DTITLE=Various Artist - NEW COUNTRY HOLIDAY SPECIAL 1995
DYEAR=1900
DGENRE=
TTITLE0=JINGLE BELLS
TTITLE1=ALL I WANT FOR CHRISTMAS
TTITLE2=WRAP ME IN YOUR LOVE
TTITLE3=CHRISTMAS TIME BACK HOME
TTITLE4=GOD REST YE MERRY GENTLEMAN
TTITLE5=MARY, DID YOU KNOW?
TTITLE6=WHAT CHILD IS THIS
TTITLE7=PRECIOUS CHILD
TTITLE8=MANGER MEDLEY
EXTD=
EXTT0=COUNTRY MOUNTAIN CHRISTMAS
EXTT1=TOBY KEITH
EXTT2=JOE DIFFIE
EXTT3=COUNTRY GENTLEMAN
EXTT4=AN AMERICANA CHRISTMAS
EXTT5=KATHY MATTEA
EXTT6=TANYA TUCKER
EXTT7=TONY TRISCHKA
EXTT8=OAK RIDGE BOYS
PLAYORDER=
